# xmcd CD database file
#
# Track frame offsets:
#	150
#	16976
#	31437
#	50048
#	68104
#	80829
#	95633
#	116793
#	134967
#	149109
#	167998
#	184401
#
# Disc length: 2737 seconds
#
# Revision: 2
# Processed by: cddbd v1.5.1PL2 Copyright (c) Steve Scherf et al.
# Submitted via: CDex 1.51
#
DISCID=c50aaf0c
DTITLE=Enya - Amarantine
DYEAR=2005
DGENRE=New Age
TTITLE0=Less Than A Pearl
TTITLE1=Amarantine
TTITLE2=It's In The Rain
TTITLE3=If I Could Be Where You Are
TTITLE4=The River Sings
TTITLE5=Long Long Journey
TTITLE6=Sumiregusa
TTITLE7=Someone Said Goodbye
TTITLE8=A Moment Lost
TTITLE9=Drifting
TTITLE10=Amid The Falling Snow
TTITLE11=Water Shows The Hidden Heart
EXTD=YEAR: 2005
EXTT0=
EXTT1=
EXTT2=
EXTT3=
EXTT4=
EXTT5=
EXTT6=
EXTT7=
EXTT8=
EXTT9=
EXTT10=
EXTT11=
PLAYORDER=
